<svg id="Layer_1" enable-background="new 0 0 512 512" height="512" viewBox="0 0 512 512" width="512" xmlns="http://www.w3.org/2000/svg"><g><path d="m373.927 186.273-117.927-117.927-117.927 117.927c-5.857 5.857-15.355 5.857-21.213 0s-5.858-15.355 0-21.213l128.534-128.533c5.857-5.857 15.355-5.857 21.213 0l128.533 128.533c5.858 5.857 5.858 15.355 0 21.213-5.86 5.86-15.357 5.857-21.213 0z" fill="#1e354b"/><path d="m395.14 186.273c5.858-5.857 5.858-15.355 0-21.213l-128.534-128.533c-2.929-2.929-6.768-4.393-10.606-4.393v36.212l117.927 117.927c5.856 5.857 15.353 5.86 21.213 0z" fill="#000f28"/><path d="m460.131 230.105c-2.849-3.285-6.983-5.172-11.332-5.172h-385.599c-4.348 0-8.483 1.887-11.332 5.172s-4.133 7.645-3.518 11.949l32.133 224.933c1.056 7.39 7.384 12.879 14.849 12.879h321.333c7.465 0 13.793-5.489 14.849-12.879l32.133-224.933c.617-4.304-.667-8.664-3.516-11.949zm-285.531 170.494c0 8.284-6.716 15-15 15s-15-6.716-15-15v-96.399c0-8.284 6.716-15 15-15s15 6.716 15 15zm64.267 0c0 8.284-6.716 15-15 15s-15-6.716-15-15v-96.399c0-8.284 6.716-15 15-15s15 6.716 15 15zm64.266 0c0 8.284-6.716 15-15 15s-15-6.716-15-15v-96.399c0-8.284 6.716-15 15-15s15 6.716 15 15zm64.267 0c0 8.284-6.716 15-15 15s-15-6.716-15-15v-96.399c0-8.284 6.716-15 15-15s15 6.716 15 15z" fill="#ff6b6b"/><path d="m431.516 466.987 32.133-224.933c.615-4.305-.668-8.664-3.518-11.949-2.849-3.285-6.983-5.172-11.332-5.172h-192.799v254.933h160.667c7.464 0 13.793-5.489 14.849-12.879zm-128.383-66.388c0 8.284-6.716 15-15 15s-15-6.716-15-15v-96.399c0-8.284 6.716-15 15-15s15 6.716 15 15zm64.267 0c0 8.284-6.716 15-15 15s-15-6.716-15-15v-96.399c0-8.284 6.716-15 15-15s15 6.716 15 15z" fill="#ff3d7d"/><path d="m497 254.933h-482c-8.284 0-15-6.716-15-15v-64.267c0-8.284 6.716-15 15-15h482c8.284 0 15 6.716 15 15v64.267c0 8.285-6.716 15-15 15z" fill="#ff3d7d"/><path d="m512 239.933v-64.267c0-8.284-6.716-15-15-15h-241v94.267h241c8.284 0 15-6.715 15-15z" fill="#c1126b"/></g></svg>